# xmcd
#
# Track frame offsets:
#	150
#	20227
#	36833
#	52737
#	68597
#	82036
#	99944
#	116826
#	130747
#	144424
#	162455
#	182487
#	197623
#	214360
#	230834
#
# Disc length: 3328 seconds
#
# Revision: 1
# Processed by: cddbd v1.5.2PL0 Copyright (c) Steve Scherf et al.
# Submitted via: audiograbber 1.83.01
#
DISCID=d30cfe0f
DTITLE=Country - CB60157
DYEAR=1998
DGENRE=Karaoke
TTITLE0=You're Gonna Miss Me When I'm Gone
TTITLE1=That Ain't NoWay To Go
TTITLE2=Heartbroke Out Of My Mind
TTITLE3=I'll Never Forgive My Heart
TTITLE4=Whiskey Under The Bridge
TTITLE5=She Can't Love You
TTITLE6=Rip Off The Knob
TTITLE7=Where There's Smoke
TTITLE8=She Don't Love Nobody
TTITLE9=Bubba Hyde
TTITLE10=Sawmill Road
TTITLE11=Tequila Talkin'
TTITLE12=Hurry Sundown
TTITLE13=Same Old Star
TTITLE14=I Don't Believe In Goodbye
EXTD=
EXTT0=
EXTT1=
EXTT2=
EXTT3=
EXTT4=
EXTT5=
EXTT6=
EXTT7=
EXTT8=
EXTT9=
EXTT10=
EXTT11=
EXTT12=
EXTT13=
EXTT14=
PLAYORDER=
